<mxfile host="65bd71144e">
    <diagram id="7QwG982CbhC558Bt_4NI" name="第 1 页">
        <mxGraphModel dx="1269" dy="831" grid="0" gridSize="10" guides="1" tooltips="1" connect="1" arrows="1" fold="1" page="1" pageScale="1" pageWidth="827" pageHeight="1169" background="#ffffff" math="0" shadow="0">
            <root>
                <mxCell id="0"/>
                <mxCell id="1" parent="0"/>
                <mxCell id="21" style="edgeStyle=none;html=1;exitX=1;exitY=1;exitDx=0;exitDy=0;entryX=0.5;entryY=0;entryDx=0;entryDy=0;fontFamily=Garamond;fontSize=19;fontColor=#000000;strokeColor=#000000;strokeWidth=1;labelBackgroundColor=none;" edge="1" parent="1" source="2" target="4">
                    <mxGeometry relative="1" as="geometry"/>
                </mxCell>
                <mxCell id="2" value="London" style="ellipse;whiteSpace=wrap;html=1;fillColor=none;strokeWidth=1;strokeColor=#000000;fontColor=#000000;labelBackgroundColor=none;fontSize=19;" vertex="1" parent="1">
                    <mxGeometry x="349" y="34" width="80" height="80" as="geometry"/>
                </mxCell>
                <mxCell id="31" style="edgeStyle=none;html=1;exitX=0.5;exitY=0;exitDx=0;exitDy=0;entryX=0;entryY=1;entryDx=0;entryDy=0;fontFamily=Garamond;fontSize=19;fontColor=#000000;strokeColor=#000000;strokeWidth=1;labelBackgroundColor=none;" edge="1" parent="1" source="3" target="2">
                    <mxGeometry relative="1" as="geometry"/>
                </mxCell>
                <mxCell id="3" value="Amsterdam" style="ellipse;whiteSpace=wrap;html=1;fillColor=none;strokeColor=#000000;strokeWidth=1;fontColor=#000000;labelBackgroundColor=none;fontSize=14;fontStyle=1" vertex="1" parent="1">
                    <mxGeometry x="269" y="174" width="80" height="80" as="geometry"/>
                </mxCell>
                <mxCell id="23" style="edgeStyle=none;html=1;exitX=0.5;exitY=1;exitDx=0;exitDy=0;entryX=0.5;entryY=0;entryDx=0;entryDy=0;fontFamily=Garamond;fontSize=19;fontColor=#000000;strokeColor=#000000;strokeWidth=1;labelBackgroundColor=none;" edge="1" parent="1" source="4" target="6">
                    <mxGeometry relative="1" as="geometry"/>
                </mxCell>
                <mxCell id="4" value="Paris" style="ellipse;whiteSpace=wrap;html=1;strokeColor=#000000;fillColor=none;strokeWidth=1;fontColor=#000000;labelBackgroundColor=none;fontSize=19;" vertex="1" parent="1">
                    <mxGeometry x="429" y="174" width="80" height="80" as="geometry"/>
                </mxCell>
                <mxCell id="30" style="edgeStyle=none;html=1;exitX=0.5;exitY=0;exitDx=0;exitDy=0;entryX=0.5;entryY=1;entryDx=0;entryDy=0;fontFamily=Garamond;fontSize=19;fontColor=#000000;strokeColor=#000000;strokeWidth=1;labelBackgroundColor=none;" edge="1" parent="1" source="5" target="3">
                    <mxGeometry relative="1" as="geometry"/>
                </mxCell>
                <mxCell id="5" value="Berlin" style="ellipse;whiteSpace=wrap;html=1;fillColor=none;strokeColor=#000000;strokeWidth=1;fontColor=#000000;labelBackgroundColor=none;fontSize=19;" vertex="1" parent="1">
                    <mxGeometry x="269" y="314" width="80" height="80" as="geometry"/>
                </mxCell>
                <mxCell id="24" style="edgeStyle=none;html=1;exitX=0.5;exitY=1;exitDx=0;exitDy=0;entryX=0.5;entryY=0;entryDx=0;entryDy=0;fontFamily=Garamond;fontSize=19;fontColor=#000000;strokeColor=#000000;strokeWidth=1;labelBackgroundColor=none;" edge="1" parent="1" source="6" target="8">
                    <mxGeometry relative="1" as="geometry"/>
                </mxCell>
                <mxCell id="6" value="Budapest" style="ellipse;whiteSpace=wrap;html=1;strokeColor=#000000;fillColor=none;strokeWidth=1;fontColor=#000000;labelBackgroundColor=none;fontSize=17;" vertex="1" parent="1">
                    <mxGeometry x="429" y="314" width="80" height="80" as="geometry"/>
                </mxCell>
                <mxCell id="29" style="edgeStyle=none;html=1;exitX=0.5;exitY=0;exitDx=0;exitDy=0;fontFamily=Garamond;fontSize=19;fontColor=#000000;strokeColor=#000000;strokeWidth=1;labelBackgroundColor=none;" edge="1" parent="1" source="7" target="5">
                    <mxGeometry relative="1" as="geometry"/>
                </mxCell>
                <mxCell id="7" value="Copenhagen" style="ellipse;whiteSpace=wrap;html=1;fillColor=none;strokeColor=#000000;strokeWidth=1;fontColor=#000000;labelBackgroundColor=none;fontSize=13;fontStyle=1" vertex="1" parent="1">
                    <mxGeometry x="269" y="454" width="80" height="80" as="geometry"/>
                </mxCell>
                <mxCell id="25" style="edgeStyle=none;html=1;exitX=0.5;exitY=1;exitDx=0;exitDy=0;entryX=0.5;entryY=0;entryDx=0;entryDy=0;fontFamily=Garamond;fontSize=19;fontColor=#000000;strokeColor=#000000;strokeWidth=1;labelBackgroundColor=none;" edge="1" parent="1" source="8" target="10">
                    <mxGeometry relative="1" as="geometry"/>
                </mxCell>
                <mxCell id="8" value="Vienna" style="ellipse;whiteSpace=wrap;html=1;fillColor=none;strokeColor=#000000;strokeWidth=1;fontColor=#000000;labelBackgroundColor=none;fontSize=19;" vertex="1" parent="1">
                    <mxGeometry x="429" y="454" width="80" height="80" as="geometry"/>
                </mxCell>
                <mxCell id="28" style="edgeStyle=none;html=1;exitX=0.5;exitY=0;exitDx=0;exitDy=0;entryX=0.5;entryY=1;entryDx=0;entryDy=0;fontFamily=Garamond;fontSize=19;fontColor=#000000;strokeColor=#000000;strokeWidth=1;labelBackgroundColor=none;" edge="1" parent="1" source="9" target="7">
                    <mxGeometry relative="1" as="geometry"/>
                </mxCell>
                <mxCell id="9" value="Zurich" style="ellipse;whiteSpace=wrap;html=1;gradientColor=none;fillColor=none;strokeColor=#000000;strokeWidth=1;fontColor=#000000;labelBackgroundColor=none;fontSize=19;" vertex="1" parent="1">
                    <mxGeometry x="269" y="594" width="80" height="80" as="geometry"/>
                </mxCell>
                <mxCell id="36" style="edgeStyle=none;html=1;exitX=0.5;exitY=1;exitDx=0;exitDy=0;strokeColor=#000000;strokeWidth=1;fontFamily=Garamond;fontSize=19;fontColor=#000000;labelBackgroundColor=none;" edge="1" parent="1" source="10" target="34">
                    <mxGeometry relative="1" as="geometry"/>
                </mxCell>
                <mxCell id="10" value="Rome" style="ellipse;whiteSpace=wrap;html=1;fillColor=none;strokeColor=#000000;strokeWidth=1;fontColor=#000000;labelBackgroundColor=none;fontSize=19;" vertex="1" parent="1">
                    <mxGeometry x="429" y="594" width="80" height="80" as="geometry"/>
                </mxCell>
                <mxCell id="37" style="edgeStyle=none;html=1;exitX=0;exitY=0;exitDx=0;exitDy=0;entryX=0.5;entryY=1;entryDx=0;entryDy=0;strokeColor=#000000;strokeWidth=1;fontFamily=Garamond;fontSize=19;fontColor=#000000;labelBackgroundColor=none;" edge="1" parent="1" source="34" target="9">
                    <mxGeometry relative="1" as="geometry"/>
                </mxCell>
                <mxCell id="34" value="Barcelona" style="ellipse;whiteSpace=wrap;html=1;gradientColor=none;fillColor=none;strokeColor=#000000;strokeWidth=1;fontColor=#000000;labelBackgroundColor=none;fontSize=16;" vertex="1" parent="1">
                    <mxGeometry x="349" y="731" width="80" height="80" as="geometry"/>
                </mxCell>
            </root>
        </mxGraphModel>
    </diagram>
</mxfile>